<?xml version="1.0" encoding="UTF-8"?>
<!DOCTYPE svg PUBLIC "-//W3C//DTD SVG 1.1//EN" "http://www.w3.org/Graphics/SVG/1.1/DTD/svg11.dtd">
<svg xmlns="http://www.w3.org/2000/svg" version="1.1" width="256px" height="256px" style="shape-rendering:geometricPrecision; text-rendering:geometricPrecision; image-rendering:optimizeQuality; fill-rule:evenodd; clip-rule:evenodd" xmlns:xlink="http://www.w3.org/1999/xlink">
<g><path style="opacity:1" fill="#9ce032" d="M 113.5,-0.5 C 122.833,-0.5 132.167,-0.5 141.5,-0.5C 206.293,11.2928 244.293,49.6261 255.5,114.5C 255.5,123.167 255.5,131.833 255.5,140.5C 244.167,205.833 205.833,244.167 140.5,255.5C 131.833,255.5 123.167,255.5 114.5,255.5C 49.1667,244.167 10.8333,205.833 -0.5,140.5C -0.5,131.5 -0.5,122.5 -0.5,113.5C 11.1667,49.1667 49.1667,11.1667 113.5,-0.5 Z"/></g>
<g><path style="opacity:1" fill="#f8f9f6" d="M 91.5,63.5 C 115.502,63.3334 139.502,63.5 163.5,64C 169.333,65.8333 173.167,69.6667 175,75.5C 175.333,79.8333 175.667,84.1667 176,88.5C 179.167,90.3333 182.333,92.1667 185.5,94C 187.956,96.4075 189.789,99.2409 191,102.5C 191.667,128.167 191.667,153.833 191,179.5C 189.167,185.333 185.333,189.167 179.5,191C 144.833,191.667 110.167,191.667 75.5,191C 69.6667,189.167 65.8333,185.333 64,179.5C 63.3333,153.833 63.3333,128.167 64,102.5C 65.198,99.2744 67.0314,96.4411 69.5,94C 72.6667,92.1667 75.8333,90.3333 79,88.5C 77.039,76.7785 81.2057,68.4452 91.5,63.5 Z"/></g>
<g><path style="opacity:1" fill="#9de134" d="M 92.5,71.5 C 116.59,71.0199 140.59,71.5199 164.5,73C 165.701,73.9025 166.535,75.0692 167,76.5C 167.833,92.1773 167.666,107.844 166.5,123.5C 156.998,129.419 147.331,135.086 137.5,140.5C 134.144,138.793 130.81,137.127 127.5,135.5C 124.19,137.127 120.856,138.793 117.5,140.5C 107.669,135.086 98.0023,129.419 88.5,123.5C 87.3338,107.844 87.1671,92.1773 88,76.5C 89.025,74.313 90.525,72.6464 92.5,71.5 Z"/></g>
<g><path style="opacity:1" fill="#f9f9f8" d="M 113.5,83.5 C 118.531,83.0413 123.198,84.0413 127.5,86.5C 137.682,81.0614 145.515,83.3947 151,93.5C 151.983,100.219 150.317,106.219 146,111.5C 140.571,117.768 134.404,123.101 127.5,127.5C 117.009,121.179 109.176,112.512 104,101.5C 102.704,93.0907 105.87,87.0907 113.5,83.5 Z"/></g>
<g><path style="opacity:1" fill="#9ee137" d="M 78.5,97.5 C 79.8181,104.011 79.8181,110.678 78.5,117.5C 76.417,116.041 74.2503,114.708 72,113.5C 69.7286,106.174 71.8952,100.841 78.5,97.5 Z"/></g>
<g><path style="opacity:1" fill="#9fe137" d="M 175.5,97.5 C 183.05,100.28 185.55,105.613 183,113.5C 180.75,114.708 178.583,116.041 176.5,117.5C 175.503,110.866 175.17,104.2 175.5,97.5 Z"/></g>
<g><path style="opacity:1" fill="#9de134" d="M 71.5,122.5 C 84.0093,129.919 96.3426,137.586 108.5,145.5C 96.4539,153.278 84.2872,160.944 72,168.5C 71.5001,153.17 71.3334,137.837 71.5,122.5 Z"/></g>
<g><path style="opacity:1" fill="#9de134" d="M 182.5,122.5 C 183.661,137.661 183.828,152.994 183,168.5C 170.713,160.944 158.546,153.278 146.5,145.5C 158.528,137.823 170.528,130.156 182.5,122.5 Z"/></g>
<g><path style="opacity:1" fill="#9ce133" d="M 126.5,144.5 C 145.774,155.139 164.774,166.306 183.5,178C 182.5,180.333 180.833,182 178.5,183C 143.748,183.986 109.082,183.653 74.5,182C 72.5776,180.54 71.9109,178.873 72.5,177C 90.7294,166.392 108.729,155.559 126.5,144.5 Z"/></g>
</svg>
